<svg width="108" height="36" viewBox="0 0 108 36" fill="none" xmlns="http://www.w3.org/2000/svg">
<path d="M49.6525 27.513C47.9065 27.513 46.4305 27.234 45.2245 26.676C44.0185 26.118 43.1005 25.353 42.4705 24.381C41.8585 23.409 41.5525 22.293 41.5525 21.033H45.3055C45.3055 21.573 45.4495 22.086 45.7375 22.572C46.0255 23.058 46.4845 23.454 47.1145 23.76C47.7625 24.066 48.6085 24.219 49.6525 24.219C51.0565 24.219 52.1095 23.931 52.8115 23.355C53.5135 22.779 53.8645 22.077 53.8645 21.249C53.8645 20.565 53.5675 20.007 52.9735 19.575C52.3795 19.143 51.4615 18.873 50.2195 18.765L48.4915 18.63C46.6015 18.468 45.0895 17.883 43.9555 16.875C42.8395 15.849 42.2815 14.499 42.2815 12.825C42.2815 11.583 42.5695 10.503 43.1455 9.58499C43.7395 8.66699 44.5765 7.96499 45.6565 7.47899C46.7365 6.97499 47.9965 6.72299 49.4365 6.72299C50.9125 6.72299 52.1905 6.98399 53.2705 7.50599C54.3685 8.02799 55.2145 8.76599 55.8085 9.71999C56.4025 10.656 56.6995 11.763 56.6995 13.041H52.9465C52.9465 12.249 52.6495 11.547 52.0555 10.935C51.4795 10.323 50.6065 10.017 49.4365 10.017C48.2845 10.017 47.4295 10.296 46.8715 10.854C46.3135 11.412 46.0345 12.069 46.0345 12.825C46.0345 13.437 46.2505 13.977 46.6825 14.445C47.1325 14.895 47.8525 15.156 48.8425 15.228L50.5705 15.39C51.9745 15.516 53.1985 15.822 54.2425 16.308C55.3045 16.776 56.1325 17.424 56.7265 18.252C57.3205 19.08 57.6175 20.079 57.6175 21.249C57.6175 22.491 57.2845 23.589 56.6185 24.543C55.9705 25.479 55.0525 26.208 53.8645 26.73C52.6765 27.252 51.2725 27.513 49.6525 27.513ZM64.4439 27.378C62.8239 27.378 61.5279 26.964 60.5559 26.136C59.6019 25.308 59.1249 24.147 59.1249 22.653C59.1249 21.051 59.7009 19.872 60.8529 19.116C62.0229 18.342 63.5889 17.955 65.5509 17.955H68.5479V17.82C68.5479 16.146 67.7019 15.309 66.0099 15.309C65.5599 15.309 65.0199 15.318 64.3899 15.336C63.7599 15.354 63.1209 15.381 62.4729 15.417C61.8429 15.435 61.2759 15.462 60.7719 15.498V12.312C61.3839 12.258 62.1129 12.213 62.9589 12.177C63.8229 12.141 64.6149 12.123 65.3349 12.123C67.5849 12.123 69.2769 12.582 70.4109 13.5C71.5629 14.4 72.1389 15.867 72.1389 17.901V27H69.1689V24.192C68.5029 26.316 66.9279 27.378 64.4439 27.378ZM65.4969 24.705C66.0009 24.705 66.4779 24.615 66.9279 24.435C67.3779 24.237 67.7469 23.913 68.0349 23.463C68.3409 22.995 68.5119 22.365 68.5479 21.573V20.196H65.4969C64.6329 20.196 63.9669 20.412 63.4989 20.844C63.0489 21.258 62.8239 21.798 62.8239 22.464C62.8239 23.148 63.0489 23.697 63.4989 24.111C63.9669 24.507 64.6329 24.705 65.4969 24.705ZM87.31 10.584C86.572 10.584 86.032 10.395 85.69 10.017C85.348 9.62099 85.1769 9.12599 85.1769 8.53199C85.1769 7.93799 85.348 7.45199 85.69 7.07399C86.032 6.69599 86.572 6.50699 87.31 6.50699C88.048 6.50699 88.5879 6.69599 88.9299 7.07399C89.2899 7.45199 89.47 7.93799 89.47 8.53199C89.47 9.12599 89.2899 9.62099 88.9299 10.017C88.5879 10.395 88.048 10.584 87.31 10.584ZM75.943 27V15.174H74.1339V12.42H75.943V11.826C75.943 10.152 76.402 8.91899 77.32 8.12699C78.256 7.31699 79.633 6.91199 81.451 6.91199H82.9629V9.80099H81.1809C80.6229 9.80099 80.1909 9.95399 79.8849 10.26C79.5969 10.548 79.453 10.962 79.453 11.502V12.42H82.828V15.174H79.453V27H75.943ZM85.9599 27V15.147H84.097V12.339H89.7129V27H85.9599ZM97.6412 27.378C96.0212 27.378 94.7252 26.964 93.7532 26.136C92.7992 25.308 92.3222 24.147 92.3222 22.653C92.3222 21.051 92.8982 19.872 94.0502 19.116C95.2202 18.342 96.7862 17.955 98.7482 17.955H101.745V17.82C101.745 16.146 100.899 15.309 99.2072 15.309C98.7572 15.309 98.2172 15.318 97.5872 15.336C96.9572 15.354 96.3182 15.381 95.6702 15.417C95.0402 15.435 94.4732 15.462 93.9692 15.498V12.312C94.5812 12.258 95.3102 12.213 96.1562 12.177C97.0202 12.141 97.8122 12.123 98.5322 12.123C100.782 12.123 102.474 12.582 103.608 13.5C104.76 14.4 105.336 15.867 105.336 17.901V27H102.366V24.192C101.7 26.316 100.125 27.378 97.6412 27.378ZM98.6942 24.705C99.1982 24.705 99.6752 24.615 100.125 24.435C100.575 24.237 100.944 23.913 101.232 23.463C101.538 22.995 101.709 22.365 101.745 21.573V20.196H98.6942C97.8302 20.196 97.1642 20.412 96.6962 20.844C96.2462 21.258 96.0212 21.798 96.0212 22.464C96.0212 23.148 96.2462 23.697 96.6962 24.111C97.1642 24.507 97.8302 24.705 98.6942 24.705Z" fill="#081131"/>
<path fill-rule="evenodd" clip-rule="evenodd" d="M22.201 5.77474C22.201 3.82965 23.7805 2.25017 25.7256 2.25017C27.6707 2.25017 29.2502 3.82965 29.2502 5.77474C29.2502 7.71984 27.6707 9.29932 25.7256 9.29932C23.7805 9.29932 22.201 7.71984 22.201 5.77474ZM16.5702 20.9104L20.7969 15.4568L20.7384 15.4861C20.9724 15.1643 21.0162 14.7548 20.8554 14.3892C20.6959 14.0236 20.3435 13.775 19.9647 13.7457C19.5684 13.7018 19.1749 13.8773 18.9395 14.1991L15.4017 18.7766L11.3491 15.5883C11.1004 15.3983 10.8079 15.3237 10.5154 15.3545C10.2244 15.3983 9.96115 15.5577 9.78419 15.7916L5.45662 21.4237L5.36741 21.5553C5.11878 22.0219 5.23578 22.6215 5.67453 22.9447C5.87928 23.0763 6.09866 23.1641 6.34729 23.1641C6.68513 23.1787 7.00542 23.0018 7.21017 22.7253L10.8811 18L15.0492 21.1312L15.1809 21.2175C15.6489 21.4661 16.2339 21.3506 16.5702 20.9104ZM19.6707 4.8538C19.6122 5.21943 19.583 5.58504 19.583 5.95066C19.583 9.24124 22.2447 11.9015 25.5207 11.9015C25.8864 11.9015 26.2374 11.8591 26.6031 11.8006V23.6013C26.6031 28.5606 23.678 31.5001 18.7055 31.5001H7.89901C2.92502 31.5001 0 28.5606 0 23.6013V12.7805C0 7.80801 2.92502 4.8538 7.89901 4.8538H19.6707Z" fill="#0059F7"/>
</svg>
